# xmcd CD database file
#
# Track frame offsets:
#	150
#	22946
#	46773
#	74683
#	98328
#	125892
#	152239
#	176900
#	197945
#	225965
#	251954
#
# Disc length: 3597 seconds
#
# Revision: 0
# Processed by: cddbd v1.4PL0 Copyright (c) Steve Scherf et al.
# Submitted via: CDex 1.50beta8
#
DISCID=950e0b0b
DTITLE=David Laborier Trio - David Laborier Trio
DYEAR=2003
DGENRE=Jazz
TTITLE0=Labels
TTITLE1=St.Nick's
TTITLE2=Sketch
TTITLE3=Mr. Ant
TTITLE4=Good News
TTITLE5=Skip-Stops
TTITLE6=Little Town
TTITLE7=T.Z. Express
TTITLE8=Still The Same
TTITLE9=Good News (Bonus)
TTITLE10=Labels (Bonus)
EXTD=YEAR: 2003
EXTT0=
EXTT1=
EXTT2=
EXTT3=
EXTT4=
EXTT5=
EXTT6=
EXTT7=
EXTT8=
EXTT9=
EXTT10=
PLAYORDER=
